<?xml version="1.0" encoding="UTF-8"?>
<svg id="Layer_1" xmlns="http://www.w3.org/2000/svg" version="1.1" viewBox="0 0 500 500">
  <!-- Generator: Adobe Illustrator 29.1.0, SVG Export Plug-In . SVG Version: 2.1.0 Build 142)  -->
  <defs>
    <style>
      .st0 {
        fill: #e0e0e0;
      }

      .st1 {
        fill: #407bff;
      }

      .st2, .st3, .st4, .st5, .st6, .st7, .st8, .st9 {
        isolation: isolate;
      }

      .st2, .st5 {
        opacity: .1;
      }

      .st3, .st10, .st7 {
        opacity: .2;
      }

      .st11 {
        fill: #75e0da;
      }

      .st12 {
        fill: #ffb573;
      }

      .st13 {
        fill: #ebebeb;
      }

      .st14 {
        fill: #263238;
      }

      .st15, .st4, .st5, .st6, .st7, .st8, .st9 {
        fill: #fff;
      }

      .st16 {
        fill: #f0f0f0;
      }

      .st17 {
        fill: #fafafa;
      }

      .st18 {
        fill: #ebb376;
      }

      .st19 {
        fill: #f5f5f5;
      }

      .st20 {
        fill: #de5753;
      }

      .st21 {
        fill: #d58745;
      }

      .st4 {
        opacity: .7;
      }

      .st6 {
        opacity: .3;
      }

      .st8 {
        opacity: .5;
      }

      .st9 {
        opacity: .4;
      }
    </style>
  </defs>
  <g id="freepik--background-complete--inject-18">
    <rect class="st13" y="382.4" width="500" height=".2"/>
    <rect class="st13" x="416.8" y="398.5" width="33.1" height=".2"/>
    <rect class="st13" x="322.5" y="401.2" width="8.7" height=".2"/>
    <rect class="st13" x="396.6" y="389.2" width="19.2" height=".2"/>
    <rect class="st13" x="52.5" y="390.9" width="43.2" height=".2"/>
    <rect class="st13" x="104.6" y="390.9" width="6.3" height=".2"/>
    <rect class="st13" x="131.5" y="395.1" width="93.7" height=".2"/>
    <path class="st13" d="M237,337.8H43.9c-3.1,0-5.7-2.6-5.7-5.7V60.7c0-3.1,2.6-5.7,5.7-5.7h193.1c3.2,0,5.7,2.6,5.7,5.7h0v271.4c0,3.2-2.6,5.7-5.7,5.7ZM43.9,55.2c-3,0-5.5,2.4-5.5,5.5v271.4c0,3,2.4,5.5,5.5,5.5h193.1c3,0,5.5-2.4,5.5-5.5V60.7c0-3-2.4-5.5-5.5-5.5H43.9Z"/>
    <path class="st13" d="M453.3,337.8h-193.1c-3.2,0-5.7-2.6-5.7-5.7V60.7c0-3.1,2.6-5.7,5.7-5.7h193.1c3.1,0,5.7,2.5,5.7,5.7v271.4c0,3.1-2.5,5.7-5.7,5.7ZM260.2,55.2c-3,0-5.5,2.4-5.5,5.5v271.4c0,3,2.4,5.5,5.5,5.5h193.1c3,0,5.5-2.4,5.5-5.5V60.7c0-3-2.4-5.5-5.5-5.5h-193.1Z"/>
    <rect class="st17" x="336.7" y="237.5" width="22.3" height="9.5"/>
    <rect class="st17" x="309.7" y="237.5" width="22.3" height="9.5"/>
    <rect class="st17" x="282.8" y="237.5" width="22.3" height="9.5"/>
    <rect class="st17" x="350.2" y="250.7" width="22.3" height="9.5"/>
    <rect class="st17" x="323.2" y="250.7" width="22.3" height="9.5"/>
    <rect class="st17" x="296.2" y="250.7" width="22.3" height="9.5"/>
    <rect class="st17" x="269.3" y="250.7" width="22.3" height="9.5"/>
    <rect class="st17" x="393.7" y="263.9" width="22.3" height="9.5"/>
    <rect class="st17" x="366.7" y="263.9" width="22.3" height="9.5"/>
    <rect class="st17" x="309.7" y="263.9" width="22.3" height="9.5"/>
    <rect class="st17" x="282.8" y="263.9" width="22.3" height="9.5"/>
    <rect class="st17" x="255.8" y="263.9" width="22.3" height="9.5"/>
    <rect class="st17" x="380.2" y="277.1" width="22.3" height="9.5"/>
    <rect class="st17" x="323.2" y="277.1" width="22.3" height="9.5"/>
    <rect class="st17" x="296.2" y="277.1" width="22.3" height="9.5"/>
    <rect class="st17" x="269.3" y="277.1" width="22.3" height="9.5"/>
    <rect class="st17" x="164" y="103" width="22.3" height="9.5"/>
    <rect class="st17" x="137" y="103" width="22.3" height="9.5"/>
    <rect class="st17" x="177.5" y="116.2" width="22.3" height="9.5"/>
    <rect class="st17" x="150.5" y="116.2" width="22.3" height="9.5"/>
    <rect class="st17" x="96.6" y="116.2" width="22.3" height="9.5"/>
    <rect class="st17" x="69.6" y="116.2" width="22.3" height="9.5"/>
    <rect class="st17" x="137" y="129.4" width="22.3" height="9.5"/>
    <rect class="st17" x="382.6" y="180.3" width="22.3" height="9.5"/>
    <rect class="st17" x="335.7" y="180.3" width="22.3" height="9.5"/>
    <rect class="st17" x="396.1" y="193.5" width="22.3" height="9.5"/>
    <rect class="st17" x="369.1" y="193.5" width="22.3" height="9.5"/>
    <rect class="st17" x="138.9" y="166.9" width="22.3" height="9.5"/>
    <rect class="st17" x="81.9" y="166.9" width="22.3" height="9.5"/>
    <rect class="st17" x="152.4" y="180.1" width="22.3" height="9.5"/>
    <rect class="st17" x="115.4" y="180.1" width="22.3" height="9.5"/>
    <rect class="st17" x="382.6" y="206.7" width="22.3" height="9.5"/>
    <rect class="st17" x="335.7" y="206.7" width="22.3" height="9.5"/>
    <rect class="st17" x="83.1" y="129.4" width="22.3" height="9.5"/>
    <rect class="st17" x="399" y="103.3" width="22.3" height="9.5"/>
    <rect class="st17" x="372" y="103.3" width="22.3" height="9.5"/>
    <rect class="st17" x="385.5" y="116.5" width="22.3" height="9.5"/>
    <rect class="st17" x="278.1" y="103.5" width="22.3" height="9.5"/>
    <rect class="st17" x="251.1" y="103.5" width="22.3" height="9.5"/>
    <rect class="st17" x="291.6" y="116.7" width="22.3" height="9.5"/>
    <rect class="st17" x="264.6" y="116.7" width="22.3" height="9.5"/>
    <rect class="st17" x="237.6" y="116.7" width="22.3" height="9.5"/>
    <rect class="st17" x="305.1" y="129.9" width="22.3" height="9.5"/>
    <rect class="st17" x="278.1" y="129.9" width="22.3" height="9.5"/>
    <rect class="st17" x="251.1" y="129.9" width="22.3" height="9.5"/>
    <rect class="st17" x="291.6" y="143.1" width="22.3" height="9.5"/>
    <rect class="st17" x="264.6" y="143.1" width="22.3" height="9.5"/>
    <rect class="st17" x="110.3" y="233.9" width="22.3" height="9.5"/>
    <rect class="st17" x="83.3" y="233.9" width="22.3" height="9.5"/>
    <rect class="st17" x="187.7" y="235.1" width="22.3" height="9.5"/>
    <rect class="st17" x="123.8" y="247.1" width="22.3" height="9.5"/>
    <rect class="st17" x="96.8" y="247.1" width="22.3" height="9.5"/>
    <rect class="st17" x="201.2" y="248.3" width="22.3" height="9.5"/>
    <rect class="st17" x="174.2" y="248.3" width="22.3" height="9.5"/>
    <rect class="st17" x="245.8" y="205.6" width="22.3" height="9.5"/>
    <rect class="st17" x="105.9" y="199.4" width="22.3" height="9.5"/>
    <rect class="st17" x="215.4" y="158.8" width="22.3" height="9.5"/>
    <rect class="st17" x="232.3" y="192.4" width="22.3" height="9.5"/>
    <rect class="st17" x="259.3" y="192.4" width="22.3" height="9.5"/>
    <rect class="st17" x="360.6" y="372.7" width="22.3" height="9.5"/>
    <rect class="st17" x="374.1" y="359.5" width="22.3" height="9.5"/>
    <rect class="st17" x="110.3" y="260.3" width="22.3" height="9.5"/>
    <rect class="st17" x="83.3" y="260.3" width="22.3" height="9.5"/>
    <rect class="st17" x="123.8" y="273.5" width="22.3" height="9.5"/>
    <rect class="st17" x="96.8" y="273.5" width="22.3" height="9.5"/>
    <rect class="st17" x="152.6" y="310.1" width="22.3" height="9.5"/>
    <rect class="st17" x="125.6" y="310.1" width="22.3" height="9.5"/>
    <rect class="st17" x="98.6" y="310.1" width="22.3" height="9.5"/>
    <rect class="st17" x="71.7" y="310.1" width="22.3" height="9.5"/>
    <rect class="st17" x="166.1" y="323.3" width="22.3" height="9.5"/>
    <rect class="st17" x="139.1" y="323.3" width="22.3" height="9.5"/>
    <rect class="st17" x="85.1" y="323.3" width="22.3" height="9.5"/>
    <rect class="st17" x="179.6" y="336.5" width="22.3" height="9.5"/>
    <rect class="st17" x="152.6" y="336.5" width="22.3" height="9.5"/>
    <rect class="st17" x="125.6" y="336.5" width="22.3" height="9.5"/>
    <rect class="st17" x="166.1" y="349.7" width="22.3" height="9.5"/>
    <rect class="st17" x="139.1" y="349.7" width="22.3" height="9.5"/>
    <rect class="st17" x="112.1" y="349.7" width="22.3" height="9.5"/>
    <rect class="st17" x="335.1" y="309.5" width="22.3" height="9.5"/>
    <rect class="st17" x="278.1" y="309.5" width="22.3" height="9.5"/>
    <rect class="st17" x="251.2" y="309.5" width="22.3" height="9.5"/>
    <rect class="st17" x="348.6" y="322.7" width="22.3" height="9.5"/>
    <rect class="st17" x="291.6" y="322.7" width="22.3" height="9.5"/>
    <rect class="st17" x="264.7" y="322.7" width="22.3" height="9.5"/>
    <rect class="st17" x="237.7" y="322.7" width="22.3" height="9.5"/>
    <rect class="st17" x="362.1" y="335.9" width="22.3" height="9.5"/>
    <rect class="st17" x="335.1" y="335.9" width="22.3" height="9.5"/>
    <rect class="st17" x="278.1" y="335.9" width="22.3" height="9.5"/>
    <rect class="st17" x="251.2" y="335.9" width="22.3" height="9.5"/>
    <rect class="st17" x="318.6" y="349.1" width="22.3" height="9.5"/>
    <rect class="st17" x="291.6" y="349.1" width="22.3" height="9.5"/>
    <rect class="st17" x="264.7" y="349.1" width="22.3" height="9.5"/>
    <rect class="st17" x="237.7" y="349.1" width="22.3" height="9.5"/>
    <rect class="st0" x="309" y="155.1" width="96.3" height="110.2"/>
    <rect class="st0" x="309.2" y="155.1" width="92.6" height="110.2"/>
    <rect class="st16" x="306" y="155.1" width="96.3" height="110.2"/>
    <rect class="st15" x="310.4" y="158.6" width="87.7" height="101.6"/>
    <rect class="st0" x="310.4" y="158.6" width="2.7" height="101.6"/>
    <rect class="st0" x="312.8" y="231.7" width="85.5" height="2.7"/>
    <rect class="st16" x="310.4" y="227.1" width="89.2" height="4.6"/>
    <rect class="st0" x="105.9" y="155.1" width="96.3" height="110.2"/>
    <rect class="st0" x="106.1" y="155.1" width="92.6" height="110.2"/>
    <rect class="st16" x="102.9" y="155.1" width="96.3" height="110.2"/>
    <rect class="st15" x="107.3" y="158.6" width="87.7" height="101.6"/>
    <rect class="st0" x="107.3" y="158.6" width="2.7" height="101.6"/>
    <rect class="st0" x="109.7" y="231.7" width="85.5" height="2.7"/>
    <rect class="st16" x="107.3" y="227.1" width="89.2" height="4.6"/>
  </g>
  <g id="freepik--Shadow--inject-18">
    <ellipse id="freepik--path--inject-18" class="st19" cx="250" cy="416.2" rx="193.9" ry="11.3"/>
  </g>
  <g id="freepik--Plant--inject-18">
    <path class="st14" d="M89.4,390.4s-1.4-10.2-7.9-11.3-4.6-6-6.2-7.9-6.1,3.7-2.3,9.2.7,3.7,2.3,8.8,14.8,9.7,14.1,1.3Z"/>
    <path class="st7" d="M89.4,390.4s-1.4-10.2-7.9-11.3-4.6-6-6.2-7.9-6.1,3.7-2.3,9.2.7,3.7,2.3,8.8,14.8,9.7,14.1,1.3Z"/>
    <path class="st14" d="M89.1,397.5c-.2,0-.3,0-.4-.2,0-.1-5-10.7-2.4-27.5.8-4.8,2.2-9.5,4-14.1,3.2-8.6,5.6-15.4,0-27.7-1.8-3.9-3.6-7.6-5.4-11.1-6.7-13.3-11.9-23.7-8-34.3,0-.2.3-.3.6-.3.2,0,.4.3.3.5,0,0,0,0,0,0-3.8,10.2,1.4,20.6,8,33.6,1.8,3.5,3.6,7.2,5.4,11.1,5.8,12.7,3.2,20,0,28.4-1.8,4.5-3.2,9.2-4,13.9-2.6,16.6,2.3,26.9,2.3,27,.1.2,0,.5-.2.6,0,0-.1,0-.2,0Z"/>
    <path class="st14" d="M85.4,395s-4.2-6.3,1.9-9.6,7.3-.6,11-3,6.6-8,7.2-4.4-3.7,5.7-2.2,7.4-10.2,12.5-17.9,9.6Z"/>
    <path class="st14" d="M75.4,287.9s-4.1-12.5,5.2-12.7-1,11.4-5.2,12.7Z"/>
    <path class="st14" d="M83.5,297.4s2.8-11.3,9.4-8.9-2.8,9.2-9.4,8.9Z"/>
    <path class="st14" d="M72.3,298.4s1-9-6-9.2-3.9,7.8,6,9.2Z"/>
    <path class="st14" d="M77,316.8s-9.4-8.4-12.8-2.1,7.1,7.5,12.8,2.1Z"/>
    <path class="st14" d="M93.6,315.4s1.8-14,9.4-9.6-2.8,11-9.4,9.6Z"/>
    <path class="st14" d="M100.3,335.3s-5.6-14.1,4.8-12.5,2.6,9.1-4.8,12.5Z"/>
    <path class="st14" d="M84.3,340.4s-8.8-10.4-15.6-7.1-1.2,13.6,15.6,7.1Z"/>
    <path class="st14" d="M92.3,363.4s7.5-16.7,14.2-11.1-4.3,14-14.2,11.1Z"/>
    <path class="st14" d="M81.4,362.4s2-12.9-5.4-11.9-5.5,9,5.4,11.9Z"/>
    <g class="st3">
      <path class="st15" d="M75.4,287.9s-4.1-12.5,5.2-12.7-1,11.4-5.2,12.7Z"/>
      <path class="st15" d="M83.5,297.4s2.8-11.3,9.4-8.9-2.8,9.2-9.4,8.9Z"/>
      <path class="st15" d="M72.3,298.4s1-9-6-9.2-3.9,7.8,6,9.2Z"/>
      <path class="st15" d="M77,316.8s-9.4-8.4-12.8-2.1,7.1,7.5,12.8,2.1Z"/>
      <path class="st15" d="M93.6,315.4s1.8-14,9.4-9.6-2.8,11-9.4,9.6Z"/>
      <path class="st15" d="M100.3,335.3s-5.6-14.1,4.8-12.5,2.6,9.1-4.8,12.5Z"/>
      <path class="st15" d="M84.3,340.4s-8.8-10.4-15.6-7.1-1.2,13.6,15.6,7.1Z"/>
      <path class="st15" d="M92.3,363.4s7.5-16.7,14.2-11.1-4.3,14-14.2,11.1Z"/>
      <path class="st15" d="M81.4,362.4s2-12.9-5.4-11.9-5.5,9,5.4,11.9Z"/>
    </g>
    <path class="st14" d="M79.5,304.9c0,0-.2,0-.2,0-5.5-3.1-9.5-8.9-9.7-9.2-.1-.2,0-.5.1-.6,0,0,0,0,0,0,.2-.1.5,0,.6.1,2.4,3.4,5.4,6.4,8.9,8.7.8-1.6,3.9-6.9,6.4-8.5.2-.1.5,0,.6.1s0,.5-.1.6c-2.7,1.6-6.3,8.5-6.3,8.5,0,.1-.2.2-.3.2,0,0,0,0-.1,0Z"/>
    <path class="st14" d="M88,322.2c0,0-.2,0-.3,0-7.8-5.9-17.9-5.7-18-5.7-.2,0-.4-.2-.5-.4,0-.2.2-.5.4-.5h0c0,0,10.1-.3,18.2,5.6,1.1-1.7,5.1-7.7,10.3-10.8.2-.1.5,0,.6.2.1.2,0,.5-.2.6h0c-5.7,3.4-10.2,10.8-10.2,10.9,0,.1-.2.2-.3.2h0Z"/>
    <path class="st14" d="M93.4,345.1c0,0-.2,0-.2,0-.1,0-11.6-6.7-19.9-6.8-.3,0-.4-.3-.4-.5,0-.2.2-.4.4-.4,7.9.2,18.2,5.8,20,6.8,5.3-4.5,9.6-15.5,9.6-15.6,0-.2.3-.4.6-.3.2,0,.4.3.3.6,0,0,0,0,0,0-.2.5-4.5,11.7-10.1,16.2,0,0-.1,0-.2,0Z"/>
    <path class="st14" d="M86.8,368.7c0,0-.2,0-.2,0-4.3-2.5-9.9-13.3-10.2-13.8-.1-.2,0-.5.2-.6.2-.1.5,0,.6.2,0,.1,5.4,10.5,9.5,13.2,3.3-3.9,7.7-6.7,12.6-8,.2,0,.5,0,.6.3,0,.2,0,.5-.3.6-4.8,1.3-9.2,4.1-12.4,8,0,.1-.2.2-.4.2Z"/>
    <path class="st14" d="M86,393.5s-3.6-5.7-7.7-6.6-5.8-5.5-7.3-2.7,2.6,12.2,15,9.2Z"/>
    <polygon class="st11" points="71.3 416 101.4 416 103.4 391.7 69.3 391.7 71.3 416"/>
    <polygon class="st1" points="68.6 396.3 104.1 396.3 104.6 391.2 68.1 391.2 68.6 396.3"/>
    <polygon class="st6" points="68.6 396.3 104.1 396.3 104.6 391.2 68.1 391.2 68.6 396.3"/>
  </g>
  <g id="freepik--Frame--inject-18">
    <path class="st11" d="M280.5,208.4l-1.5.3c-.3,0-.6-.2-.7-.6,0-.2,0-.3.1-.4h0c-.4.2-.9.4-1.3.6,0,.7,0,1.3,0,2l9.8,50.7-36.5,7.1c0,0,0,.1,0,.2,0,.3-.3.6-.6.5-.6-.1-1.2-.2-1.8-.3l-48.4,9.4c0,0,0,.2,0,.2-.2.3-.4.6-.6.9,0,.2,0,.4,0,.5-.4,1.1-.9,2.2-1.4,3.2-.2.3-.5.5-.8.5-.2,0-.4,0-.6,0-.2.5-.4,1-.5,1.5l77.5-15h0c.9-1,2.1-1.4,3.4-1.3.4-.5,1-1,1.5-1.3.5-.4,1.2-.4,1.8-.1.4.2.7.6.8,1,.8,0,1.5-.1,2.3-.2l11-2.1-10.8-55.4c-1.1-.4-2-1.1-2.8-1.9Z"/>
    <path class="st11" d="M180.3,135.9h.4c0,0,7.2-1.3,7.2-1.3.8-.4,1.6-.7,2.4-1.1,1.5-.7,3-1.1,4.6-1.3,1,0,1.9,0,2.8.4l62.2-12.1,5.8,29.7c.2-.3.6-.3.8-.1.1,0,.2.2.2.3.3,1.3.5,2.7.5,4,0,.6-.2,1.3-.4,1.9l9.8,50.6c.6-.2,1.2-.5,1.8-.7.1-.7.5-1.3,1.1-1.7.4-.2.9-.2,1.3-.1.2-.5.4-1.1.5-1.6.1-.7.2-1.4.2-2.1l-.4-2.1c0-.1,0-.2-.1-.3,0-.2,0-.3,0-.5l-10.3-53.2c0,0-.1,0-.2,0-.7,0-1.5-.3-1.9-.9-.3-.6-.4-1.2-.2-1.9.1-.8.3-1.5.4-2.2.2-.7.2-1.3.1-2,0-.2,0-.5.3-.6l-4.6-23.6-89.7,17.5c-1.7,1-3.6,1.5-5.5,1.4-.2,0-.4-.1-.4-.3l-44.5,8.6c0,.2-.2.4-.5.5l-2.3.4c0,.4-.1.7-.3,1,0,.1,0,.3-.2.4-.2.1-.3.3-.4.4-.3.2-.5.5-.8.8,0,0-.2.2-.3.2-.2,0-.4,0-.6-.2-.1-.1-.2-.3-.2-.4,0,0,0-.1,0-.2-.4,0-.7,0-1.1,0-.3,0-.6-.3-.6-.6,0-.3.3-.6.6-.6.4,0,.8,0,1.1,0h.3s0,0,.1,0h0c-.3,0-.6-.2-.8-.4,0,0,0,0,0,0l-25.8,5c.1,0,.2,0,.3,0,.3.2.3.6.2.8-.2.3-.4.5-.7.8h0s0,0,0,0c0,0,0,.1-.1.2h0c0,.1,0,.2,0,.2,0,0,0,0,0,0,0,.3-.4.6-.7.5,0,0-.2,0-.2,0h0c0,0-.1,0-.2,0,0,0-.1,0-.2,0,0,.3,0,.6-.2.8-.1.2-.3.3-.5.2-.1.6-.3,1.1-.6,1.6-.3.5-.7,1-1.2,1.3h0c0,.1.2.3.2.4l38.3-7.4h0c.2-.3.4-.6.6-.8.3-.2.8-.3,1.2-.2.3,0,.6.2.9.4l49.6-9.6c.1-.3.4-.4.7-.3Z"/>
    <path class="st11" d="M113.6,294.6l-9-46.4c-.2.2-.4.3-.7.2-.3-.1-.5-.4-.4-.8.1-.4.4-.8.7-1.2l-11.8-60.9v-.2c-.3-.5-.5-1-.6-1.6-.2,0-.4,0-.6,0-.3,0-.6-.2-.7-.5,0,0,0,0,0-.1,0-1.2.3-2.3.9-3.3l-4.8-24.6c0-.1-.2-.3-.2-.4l-.2-.4c-.2,0-.4-.1-.5-.3-.1-.3,0-.7.3-.8.2,0,.5-.2.7-.4.1-.2.2-.3.3-.5.2-.4.2-.9.2-1.3-.2-.2-.3-.4-.3-.7,0-.3,0-.7,0-1,0,0,0-.2.1-.2,0-.4,0-.8,0-1.1l-7.7,1.5,21.8,112.6c.2-.1.5,0,.7.2.6.6.9,1.4.9,2.2,0,.2,0,.3-.1.5.2.2.3.4.2.7-.3.6-.4,1.2-.3,1.9.1.6.3,1.2.5,1.8.4,1,.4,2,.1,3l5.7,29.4,1.6-.3c.9-.3,1.8-.5,2.8-.7,0-.1,0-.3,0-.4.2-.3.5-.5.8-.8,0-.1,0-.2,0-.3.2-.7.6-1.3,1.1-1.8.5-.4,1.1-.5,1.7-.5,1.2.2,2.3.8,2.9,1.9,1.6-.4,3.4-1,5-.2l62.2-12c0-.2,0-.3.1-.5.3-.8.7-1.5,1.4-2.1.2-.2.5-.2.7,0,.2-.3.5-.3.7-.2,0,0,.1.1.2.2l.2.3h.1c0,.1.2.2.2.2h.2c-.2-.5-.2-1.1,0-1.7.2-.7.7-1.2,1.4-1.5-.2-.3-.1-.6.1-.8,0,0,.2,0,.2-.1.3,0,.6.2.7.5,0,.2,0,.4-.2.5h0c.1.4,0,.7-.3.9h-.2c0,.1-.1.2-.1.2h0s-.2.2-.2.2h0c0,0-.1.2-.1.2h0c0,.1,0,.2,0,.2h0c.2-.3.4-.5.7-.7.2-.1.4-.2.6-.3.5-1.1.9-2.2,1.4-3.3l-81.2,15.7Z"/>
  </g>
  <g id="freepik--Number--inject-18">
    <path class="st11" d="M128.4,248c.1-.1.2-.2.4-.3l18.1-35.7-8.3,1.6-7.3,14.2s0,0,.1,0c.3.2.3.6.2.8-.2.2-.3.5-.4.8.1,0,.2.2.4.2.2.1.3.4.2.6,0,.2-.2.4-.5.5h-.2c0,.1,0,.1,0,.1h0l-.4.2h-.2c0,.1-.3.4-.3.4l-.2.2h0c0,0-.3.4-.3.4-.2.3-.4.6-.6.8,0,.1-.2.2-.4.2l-10.7,20.9,1,5.4,4.7-.9c.2-.4.4-.9.7-1.2.2-.1.3-.3.5-.4,0,0,0,0,0-.1.2-2.4,1-4.8,2.3-6.8-.1-.2-.1-.5,0-.7.2-.3.2-.6.2-.9,0-.3.3-.6.6-.6.2,0,.3,0,.4.2Z"/>
    <path class="st11" d="M159.5,244.8c0,.1,0,.3-.1.4-.3.6-.8,1-1.4,1.3-.1.2-.2.4-.4.5,0,0-.2.2-.3.2,0,0,0,.2,0,.3,0,.3-.4.5-.7.4-.3,0-.5-.4-.4-.7,0,0,0,0,0,0,0-.3.2-.7.4-1h-.6c-.3.2-.6,0-.7-.4,0,0,0,0,0-.1h-.4c0,0-2.3-11.7-2.3-11.7l-7.2,1.4,2.3,11.7-17.9,3.5c-.1,0-.2.1-.4.2h0c.1.4,0,.7-.4.8-.2,0-.5,0-.6-.2-.3.3-.6.6-.9.9.2,0,.4,0,.6.2.2.2.2.6,0,.8,0,0,0,0,0,0l-.5.4c.1.2.1.5,0,.7h0c0,.1,0,.1,0,.2v.4c0,.3-.1.5-.3.7-.2.2-.5.3-.8.4h0c0,.3,0,.6.1.9.1.3.2.6.3.9l21.9-4.2,2.5,13.3,7.5-1.4-2.6-13.2,10.2-2-1.3-6.6-5.7,1.1Z"/>
    <path class="st11" d="M202.8,208.8l-.5.4c-.2.2-.4.4-.7.6l-.3.3h0v.2c-.5.6-1.3.7-1.9.3-.5-.3-.7-.9-.5-1.4l.3-1.1s0,0-.1-.1c0-.2-.1-.3-.1-.5,0-.2,0-.3,0-.5,0-.1,0-.2.1-.4-.2-.2-.4-.5-.5-.7h0c-4.2-2.3-9.1-3-13.7-2-12.6,2.4-20,14.2-16.6,31.8s14.7,25.7,27.3,23.3c1.1-.2,2.2-.5,3.3-.9.4-.5.7-1,1-1.5.4-.6,1.2-.7,1.7-.3.1.1.3.2.4.4,8.5-4.7,12.9-15.2,10.1-29.4-1.6-8.3-4.9-14.5-9.4-18.4ZM194.3,252.2c-8.4,1.6-15.6-4.1-18.3-17.9s1.8-21.8,10.3-23.4c4.5-1,9.2.6,12.2,4.1.1-.1.3-.2.5-.2.7-.1,1.3.3,1.5,1,.1.6.1,1.3,0,1.9,2,3.4,3.3,7.1,4,11,2.7,13.8-1.8,21.9-10.2,23.5Z"/>
    <path class="st11" d="M257.5,225.8l-2.3-11.7-7.2,1.4,2.3,11.7-20.7,4,19.8-39.1-8.3,1.6-7.4,14.6c0,1.8-.4,3.6-1.1,5.3-.1.3-.5.5-.8.3-.2,0-.3-.2-.3-.3-.2,1.5-.9,3-2.1,4.1-.2.1-.4.2-.6.1l-8.4,16.5,1,5.4,12.4-2.4c1.1-.8,2.3-1.4,3.6-1.6,1.2-.3,2.4-.4,3.6-.5.9,0,1.8,0,2.7.2l7.5-1.5,2.6,13.2,7.4-1.4-2.6-13.2,10.2-2-1.3-6.6-10.2,2Z"/>
  </g>
  <g id="freepik--Text--inject-18">
    <path class="st11" d="M120.1,193.8l-1.2-6.1,12.2-2.4-.9-4.7-12.2,2.4-1.1-5.7,13.8-2.7-1-4.9-19.8,3.9,1.7,8.8c.3.2.6.4.8.6.4.5.6,1.1.7,1.7.1,1.2-.2,2.5,0,3.8,0,.2,0,.4-.2.6l2.2,10.9,20.3-3.9-.9-4.9-14.3,2.8Z"/>
    <path class="st11" d="M155.9,183.2c3-1.9,4.6-5.5,3.9-9-.1.1-.2.2-.4.2-.2,0-.5-.1-.6-.3-.1-.3-.2-.7-.3-1h0c-.2-.4-.3-.6-.4-.9,0-.3.2-.6.5-.7.1,0,.3,0,.4,0-1.9-4.3-6.5-6.2-12.5-5l-11.4,2.2,1.5,7.9c.1,0,.2.1.3.3,1,2,1.6,4.1,1.8,6.3,0,.3-.2.6-.5.7,0,0-.1,0-.2,0l2.2,11.2,6.1-1.2-1.4-7.3,5.6-1.1,6.5,6.3,6.5-1.3-7.5-7.3ZM148.9,180.7l-5,1-1.8-9.1,5-1c3.7-.7,5.9.6,6.5,3.5s-1,5-4.7,5.7Z"/>
    <path class="st11" d="M183.5,177.8c3.1-2,4.6-5.7,3.8-9.3-1.1-5.9-6.2-8.7-13.2-7.3l-11.4,2.2,5.1,26.3,6.1-1.2-1.4-7.3,5.6-1.1,6.5,6.3,6.5-1.3-7.5-7.3ZM176.4,175.3l-5,1-1.8-9.2,4.9-1c.3,0,.6-.1.9-.1l.2-.2c0-.1,0-.3.1-.4.1-.4.5-.6.9-.6.4,0,.7.2,1,.3,0,0,.1-.1.2-.1,0-.2,0-.4,0-.6.1-.3.5-.5.8-.3.3.1.4.4.3.7-.1.5.1.9,0,1.3,0,.1,0,.2-.1.3,1.1.7,1.9,1.8,2.1,3.1.6,2.9-.9,4.9-4.7,5.7h0Z"/>
    <path class="st11" d="M212.3,156.1h-.3c0,.1-.1.1-.2.2,0,0,0,0,0,0h0c0,.1-.2.2-.3.2-.2,0-.3,0-.4-.1-.1,0-.2-.2-.2-.4,0-.2,0-.3,0-.4,0,0,0,0,0,0-2.6-.8-5.3-1-7.9-.4-8.3,1.6-13.2,8.6-11.7,16.4s8.7,12.4,17,10.8,13.3-8.5,11.7-16.4c-.8-4.3-3.6-8-7.6-9.8ZM207.2,177.1c-4.6.9-9.1-2.1-10-6.8s2.1-9.1,6.8-10c1.1-.2,2.3-.2,3.4,0,0-.1,0-.3.1-.4.1-.3.4-.4.7-.4.2,0,.4.2.4.4h.4c0-.3.2-.6.2-.8s0-.3.1-.4c0,0,0-.1,0-.2h0c0,0,0-.4,0-.4h0c0-.5.4-1,.8-.8l1.2.6c.3.1.5.5.4.8,0,.1-.1.3-.2.5,0,0,0,.1,0,.2h0c0,.3,0,.6,0,.8,0,.6,0,1.1-.1,1.7,0,.1,0,.3,0,.4,0,0,0,.1-.1.2,1.3,1.3,2.2,3,2.5,4.8,1.1,4.4-1.6,8.8-5.9,9.9-.2,0-.4.1-.7.1Z"/>
    <path class="st11" d="M246.7,157.8s0,0-.1,0c-.2,0-.5-.2-.6-.4,0,.2-.2.3-.3.4-.2.3-.6.3-.8.2-.3-.2-.3-.6-.2-.8.6-.8,1-1.7,1.1-2.7-2-4.1-6.5-5.8-12.4-4.7l-11.4,2.2,5.1,26.2,6.1-1.2-1.4-7.3,5.6-1.1,6.5,6.3,6.5-1.3-7.5-7.3c2.9-1.8,4.4-5.2,3.9-8.6ZM235.7,163.9l-5,1-1.7-9.2,5-1c3.7-.7,5.9.6,6.5,3.5s-1.1,5-4.8,5.7Z"/>
  </g>
  <g id="freepik--speech-bubble--inject-18">
    <path class="st11" d="M193.8,316.7h42.7c4.9,0,8.8,4,8.8,8.8h0v15c0,4.9-3.9,8.8-8.8,8.9h-28.4l-13,13.9,7-13.9h-8.4c-4.9,0-8.9-4-8.9-8.9h0v-15c0-4.9,4-8.9,8.8-8.9,0,0,0,0,0,0Z"/>
    <path class="st4" d="M193.8,316.7h42.8c4.9,0,8.9,4,8.9,8.8h0v15c0,4.9-4,8.8-8.8,8.9h-28.5l-13,13.9,7-13.9h-8.4c-4.9,0-8.9-4-8.9-8.9h0v-15c0-4.9,4-8.9,8.9-8.9,0,0,0,0,0,0Z"/>
    <path class="st1" d="M195.9,332.2c-.1-2.8,2.1-5.2,4.9-5.3,2.8-.1,5.2,2.1,5.3,4.9.1,2.8-2.1,5.2-4.9,5.3,0,0-.1,0-.2,0-2.7.1-4.9-1.9-5.1-4.6,0,0,0-.2,0-.3ZM204.6,332.2c0-2-1.6-3.7-3.7-3.7-2,0-3.7,1.6-3.7,3.7s1.6,3.7,3.7,3.7c0,0,0,0,0,0,2,0,3.6-1.5,3.7-3.5,0,0,0-.1,0-.2Z"/>
    <path class="st1" d="M207.2,333.3c0-2.1,1.6-3.8,3.7-3.9,2.1,0,3.8,1.6,3.9,3.7,0,2.1-1.6,3.8-3.7,3.9,0,0,0,0,0,0-2,0-3.7-1.4-3.8-3.4,0,0,0-.2,0-.2ZM213.4,333.3c0-1.3-.9-2.5-2.3-2.6-1.3,0-2.5.9-2.6,2.3,0,.1,0,.2,0,.3,0,1.3.9,2.5,2.3,2.6,1.3,0,2.5-.9,2.6-2.3,0-.1,0-.2,0-.3Z"/>
    <path class="st1" d="M224,333.3c.1,1.9-1.4,3.6-3.3,3.7-.1,0-.2,0-.3,0-1,0-1.9-.4-2.5-1.2v3.7h-1.3v-9.9h1.2v1.1c.6-.8,1.6-1.3,2.6-1.2,1.9,0,3.6,1.4,3.7,3.4,0,.1,0,.2,0,.3ZM222.7,333.3c0-1.3-1.2-2.4-2.5-2.3s-2.4,1.2-2.3,2.5c0,1.3,1.1,2.3,2.4,2.3,1.3,0,2.4-1,2.5-2.3,0,0,0-.2,0-.2h0Z"/>
    <path class="st1" d="M224.9,336.2l.5-1c.8.5,1.6.7,2.5.7,1.2,0,1.7-.4,1.7-1,0-1.6-4.6-.2-4.6-3.1s1.2-2.2,3-2.2c.9,0,1.8.2,2.6.7l-.6,1c-.6-.4-1.3-.6-2.1-.6-1.1,0-1.7.4-1.7,1,0,1.7,4.6.3,4.6,3.1s-1.2,2.1-3.1,2.1c-1.1,0-2.1-.3-3-.8Z"/>
    <path class="st1" d="M232.4,336.2c0-.5.4-.9.9-.9,0,0,0,0,0,0,.5,0,.9.4.9.8,0,0,0,0,0,0,0,.5-.4.9-.9.9,0,0,0,0,0,0-.5,0-.9-.4-.9-.9,0,0,0,0,0,0ZM232.5,327.4h1.5l-.3,6.5h-1l-.3-6.5Z"/>
  </g>
  <g id="freepik--character-part-2--inject-18">
    <path class="st14" d="M443,160.8c0,3.3-17.8,6.1-43.4,7.3h-2c0,.1-2.8.2-2.8.2-3.8.1-7.8.3-11.9.4h-2.8c-3.1,0-6.4,0-9.6,0-5.9,0-11.7,0-17.2-.2h-4c-10-.5-19.2-1-26.9-1.8-15.1-1.5-24.6-3.6-24.6-6,0-3.6,21.6-6.6,51.3-7.6h2.3c2.1-.1,4.2-.2,6.3-.2,2.6,0,5.2,0,7.8-.1h4.8c7.5,0,14.7.1,21.5.4h3.2c0,.1,4.2.3,4.2.3h1.1c0,0,2.8.2,2.8.2,23.5,1.4,39.8,4.1,39.8,7.2Z"/>
    <path class="st9" d="M443,160.8c0,3.3-17.8,6.1-43.4,7.3h-2c0,.1-2.8.2-2.8.2-3.8.1-7.8.3-11.9.4h-2.8c-3.1,0-6.4,0-9.6,0-5.9,0-11.7,0-17.2-.2h-4c-10-.5-19.2-1-26.9-1.8-15.1-1.5-24.6-3.6-24.6-6s1.9-2.1,5.3-3c6.3,1.5,12.8,2.5,19.3,3,7.7.7,16.8,1.3,26.9,1.6h4c5.5.3,11.3.4,17.2.4s6.5,0,9.6,0h2.8c4.1,0,8.1-.2,11.9-.4h2.8c0-.1,2-.2,2-.2,17.2-.8,30.9-2.4,38-4.3,3.4.9,5.3,1.9,5.3,3Z"/>
    <path class="st12" d="M365.5,152.8c0,1.2-.5,2.3-1.3,3.2-.8,1-1.5,1.8-2.4,2.6-.5.5-1,1-1.5,1.4-.3.3-.6.6-1,.9-1.7,1.6-3.5,3-5.4,4.4l-.3.2-.9.6c-1.2.8-2.4,1.5-3.7,2.2-.5.2-1,.5-1.5.7-1.2.5-2.4.9-3.7,1.2-1.1.3-2.2.6-3.2.8-1.5.3-3,.6-4.4.9-2.7.5-5.5,1-8.2,1.4-2.3.4-4.7.7-7,1-1.9.2-3.8.4-5.7.6-.2,0-.4,0-.6,0-1.3-.2-2.3-1.2-2.4-2.6,0-.1,0-.3,0-.4,0-1.1.8-2.1,1.9-2.5h.2c2.6-1,5.2-1.9,7.8-2.7l4-1.3c4-1.3,8-2.5,11.9-3.8,1-.3,1.9-.6,2.8-1,.8-.3,1.5-.6,2.2-1,.5-.3.9-.6,1.4-.9,1-.7,2-1.4,2.9-2.2,1.3-1.1,2.6-2.3,3.9-3.5,2.1,0,4.2-.1,6.3-.1,2.6,0,5.2-.1,7.9-.1Z"/>
    <path class="st1" d="M365.6,156.9c0,.2-.1.4-.2.6s-.2.4-.3.6c0,.2-.2.4-.3.6l-.3.6h0c-.2.4-.5.7-.7,1.1-.3.4-.5.7-.9,1l-.3.3c-.4.5-.9.9-1.4,1.3-.2.1-.3.3-.5.4,0,0-.1.1-.2.2h0c-1.5,1.2-3.1,2.3-4.8,3.1l-.6.3h0l-.6.3h-.2c0,.1-.7-.5-.7-.5l-.6-.6-1.4-1.2-7-6.2-.5-.5s2.1-2.4,5-5.2h2.3c2.1-.1,4.2-.2,6.3-.2,2.6,0,5.2,0,7.8-.1h.6c.1,1.4,0,2.8-.5,4.1Z"/>
    <path class="st4" d="M365.6,156.9c0,.2-.1.4-.2.6,0,.2-.2.4-.3.6,0,.2-.2.4-.3.6l-.3.6h0c-.2.4-.5.7-.7,1.1-.3.4-.5.7-.9,1l-.3.3c-.4.5-.9.9-1.4,1.3-.2.1-.3.3-.5.4,0,0-.1.1-.2.2h0c-1.5,1.2-3.1,2.3-4.8,3.1l-.6.3h0l-.6.3h-.2c0,.1-.7-.5-.7-.5l-.6-.6-1.4-1.2-7-6.2-.5-.5s2.1-2.4,5-5.2h2.3c2.1-.1,4.2-.2,6.3-.2,2.6,0,5.2,0,7.8-.1h.6c.1,1.4,0,2.8-.5,4.1Z"/>
    <path class="st2" d="M360.5,163.6c-1.9,1.5-4,2.8-6.3,3.9l-2.8-2.4c1.4-4.3,4-8.1,7.5-11,1.2,2.3,1.6,7.2,1.5,9.6Z"/>
    <path class="st18" d="M315.3,169.5l-9.3-1.4v8.2c0,0,6.4,1.9,9.8-2.4l-.5-4.4Z"/>
    <polygon class="st18" points="299.7 170.3 301.2 176.4 306.1 176.3 306 168.1 299.7 170.3"/>
    <path class="st1" d="M399.2,153.5c0,.2-.2.4-.2.6-.2.6-.5,1.2-.7,1.9-.1.4-.3.8-.4,1.1s-.3.8-.4,1.2c-.4,1.2-.7,2.3-1.1,3.5,0,0,0,.1,0,.2-.4,1.3-.7,2.7-1,4v.2c-.2.7-.4,1.4-.5,2.1,0,.3-.1.6-.2.9-.3,1.2-.5,2.5-.8,3.7h0c0,.5-.2.9-.3,1.4s-.2,1-.3,1.4c0,.1,0,.2,0,.3,0,.3-.1.5-.1.8-.1.7-.2,1.4-.4,2.2,0,.1,0,.2,0,.3v.8c-.4,1.5-.6,2.9-.8,4.3,0,0,0,.2,0,.2-.2,1.5-.4,3-.5,4.4,0,.6-.1,1.2-.2,1.7,0,.8-.2,1.6-.2,2.3,0,.6-.1,1.1-.2,1.6s0,1-.1,1.4,0,.9-.1,1.4c-.1,1.2-.2,2.3-.2,3.3,0,.4,0,.8,0,1.2,0,1.3-.1,2.3-.1,2.7v.3l-17.7-1.6h-.3l-3-.3-4.5-.4h0l-5.6-.5h-1.3c0-.1-6.6-.7-6.6-.7,0-.6,0-1.2,0-1.9h0v-.5c-.2-5.5,0-10.5.2-15,.2-2.4.4-4.6.6-6.8.4-3.1.8-5.9,1.3-8.5.1-.6.2-1.2.4-1.7h0c0-.4.2-.8.2-1.1.7-3,1.5-6,2.5-8.9h0c.5-1.4,1-2.7,1.4-3.8,2.6,0,5.2,0,7.8-.1h4.8c7.5,0,14.7.1,21.5.4h3.2c0,.1,4.2.2,4.2.2Z"/>
    <path class="st4" d="M399.2,153.5c0,.2-.2.4-.2.6-.2.6-.5,1.2-.7,1.9-.1.4-.3.8-.4,1.1s-.3.8-.4,1.2h0c-.4,1.2-.7,2.4-1,3.5,0,0,0,.1,0,.2-.5,1.7-.9,3.4-1.4,5.2,0,.4-.2.8-.2,1.1s-.1.6-.2.9c-.3,1.2-.5,2.5-.8,3.7,0,.5-.2.9-.3,1.4,0,.5-.2.9-.3,1.4,0,.1,0,.2,0,.3,0,.3-.1.5-.1.8-.1.7-.2,1.4-.4,2.2,0,.1,0,.2,0,.3v.8c-.4,1.5-.6,2.9-.8,4.3,0,0,0,.2,0,.2-.2,1.5-.4,3-.5,4.4,0,.6-.1,1.2-.2,1.7,0,.8-.2,1.6-.2,2.3,0,.6-.1,1.1-.2,1.6s0,1-.1,1.4,0,.9-.1,1.4c-.1,1.2-.2,2.3-.2,3.3,0,.4,0,.8,0,1.2,0,1.3-.1,2.3-.1,2.7v.3l-17.7-1.6h-.3l-3-.3-4.5-.4h0l-5.5-.5h-1.3c0-.1-6.6-.7-6.6-.7,0-.6,0-1.2,0-1.9h0v-.5c-.2-5.5,0-10.5.2-15,.2-2.4.4-4.6.6-6.8.4-3.1.8-5.9,1.3-8.5.1-.6.2-1.2.4-1.7h0c0-.4.2-.8.2-1.1.7-3,1.5-6,2.5-8.9h0c.5-1.4,1-2.7,1.4-3.8,2.6,0,5.2,0,7.8-.1h4.8c7.5,0,14.7.1,21.5.4h3.2c0,.1,4.2.2,4.2.2Z"/>
    <path d="M303.5,286.2s12.5-5.2,12.9-10.4c0-.5.4-.9.9-.9,0,0,0,0,0,0l9.5.6c.5,0,.9.3,1,.7l3.8,8.8-2.6.4-1.1-1.2-1,1.5c-14.4,2-20.6,2.6-23.5,2.1-.5-1.2,0-1.7,0-1.7Z"/>
    <path class="st14" d="M362.1,234.3c-.5-.1-.9-.2-.9-.2l-45-5.6,13.4,47.6-13.6,1.3s-31.1-59.9-18.4-68.6,52.1.9,52.1.9l1.5-11.9,39.1,2.9c6.3,39.1-22.9,34.7-28.3,33.5Z"/>
    <path d="M349.1,371.9s13.5-1.3,15.4-6.1c.2-.5.7-.7,1.1-.5,0,0,0,0,0,0l9,3.3c.4.2.7.5.8,1l1.1,9.6-2.6-.4-.7-1.5-1.4,1.1c-14.3-2.3-20.5-3.5-23.1-4.8-.2-1.3.4-1.7.4-1.7Z"/>
    <path class="st14" d="M390.8,214.9h0c0,.2-1.7,7.7-3.8,18.5-.1.6-.2,1.2-.4,1.9-1,5.1-2.1,10.9-3.2,16.9-1.3,7.3-2.6,15-3.7,22.3-1.5,9.1-2.5,18.3-2.9,27.5-.5,23.2-1.5,68.9-1.5,68.9l-12.5-2s-6.9-48.8-6.8-72.4c0-15,3.8-45.9,6.3-65.1,1.3-9.9,2.3-16.7,2.3-16.7h14.1c0,.1,12.1.3,12.1.3Z"/>
    <polygon class="st14" points="389.8 204.6 390.6 204.6 390.6 201.9 389.9 201.9 389.8 204.6"/>
    <polygon class="st14" points="359 202.2 375.7 203.5 375.8 200.8 359.2 199.5 359 202.2"/>
    <polygon class="st14" points="357.9 199.4 350.8 198.8 350.6 201.5 357.7 202.1 357.9 199.4"/>
    <polygon class="st14" points="388.6 201.8 377.1 200.9 377 203.6 388.5 204.4 388.6 201.8"/>
    <g class="st10">
      <polygon class="st15" points="389.8 204.6 390.6 204.6 390.6 201.9 389.9 201.9 389.8 204.6"/>
      <polygon class="st15" points="359 202.2 375.7 203.5 375.8 200.8 359.2 199.5 359 202.2"/>
      <polygon class="st15" points="357.9 199.4 350.8 198.8 350.6 201.5 357.7 202.1 357.9 199.4"/>
      <polygon class="st15" points="388.6 201.8 377.1 200.9 377 203.6 388.5 204.4 388.6 201.8"/>
    </g>
    <path class="st15" d="M368.8,203.3h0l-4.2-.4c-.5,0-.8-.4-.8-.9v-1.6c0-.2.2-.5.4-.6.2-.2.4-.2.6-.2l4.1.3c.5,0,.8.4.8.9v1.7c0,.2-.1.5-.3.6-.2.1-.4.2-.6.2ZM364.7,200.3s0,0,0,0c0,0,0,0,0,0h0v1.6c0,0,0,.1,0,.1,0,0,0,0,0,0l4.2.4s0,0,.1,0c0,0,0,0,0,0v-1.7c0,0,0-.1-.1-.1l-4.1-.3h0Z"/>
    <path class="st15" d="M368.8,201.9h-1.3c-.2-.1-.3-.3-.3-.5,0-.2.2-.3.4-.3h1.3c.2.1.4.3.4.5s-.2.4-.4.4h0Z"/>
    <path class="st2" d="M396.4,162c-.5,1.7-.9,3.4-1.4,5.2-.2.7-.3,1.4-.5,2.1-.8,3.4-1.4,6.8-1.9,10.1v.8c-7,2.2-14.1.7-13.9-5.9.3-8.9,7.9-13,7.9-13,3.4-1.9,6.9-1.1,9.7.9Z"/>
    <polygon class="st14" points="329.2 416 338.4 416 308.3 178.3 299.1 178.3 329.2 416"/>
    <polygon class="st9" points="329.2 416 338.4 416 308.3 178.3 299.1 178.3 329.2 416"/>
    <path class="st14" d="M309.8,213.5h29.4c.7,0,1.4-.5,1.7-1.2l1.9-4h-36.5l1.9,4c.3.7.9,1.2,1.7,1.2Z"/>
    <path class="st9" d="M309.8,213.5h29.4c.7,0,1.4-.5,1.7-1.2l1.9-4h-36.5l1.9,4c.3.7.9,1.2,1.7,1.2Z"/>
    <rect class="st14" x="304.8" y="206" width="39.4" height="4.2" rx="1.9" ry="1.9"/>
    <rect class="st5" x="304.8" y="206" width="39.4" height="4.2" rx="1.9" ry="1.9"/>
    <path class="st14" d="M315.2,247.5h29.4c.8,0,1.4-.5,1.7-1.2l1.9-3.9h-36.5l1.9,3.9c.3.7.9,1.2,1.7,1.2Z"/>
    <path class="st9" d="M315.2,247.5h29.4c.8,0,1.4-.5,1.7-1.2l1.9-3.9h-36.5l1.9,3.9c.3.7.9,1.2,1.7,1.2Z"/>
    <rect class="st14" x="310.2" y="240" width="39.4" height="4.2" rx="1.9" ry="1.9"/>
    <rect class="st5" x="310.2" y="240" width="39.4" height="4.2" rx="1.9" ry="1.9"/>
    <path class="st14" d="M320.5,292.5h29.5c.8,0,1.4-.5,1.7-1.2l1.9-4h-36.6l1.9,4c.3.7.9,1.2,1.7,1.2Z"/>
    <path class="st9" d="M320.5,292.5h29.5c.8,0,1.4-.5,1.7-1.2l1.9-4h-36.6l1.9,4c.3.7.9,1.2,1.7,1.2Z"/>
    <rect class="st14" x="315.6" y="285" width="39.4" height="4.2" rx="1.9" ry="1.9"/>
    <rect class="st5" x="315.6" y="285" width="39.4" height="4.2" rx="1.9" ry="1.9"/>
    <path class="st14" d="M325.9,337.5h29.4c.7,0,1.4-.5,1.7-1.2l1.9-4h-36.5l1.9,4c.3.7.9,1.2,1.7,1.2Z"/>
    <path class="st9" d="M325.9,337.5h29.4c.7,0,1.4-.5,1.7-1.2l1.9-4h-36.5l1.9,4c.3.7.9,1.2,1.7,1.2Z"/>
    <rect class="st14" x="320.9" y="330" width="39.4" height="4.2" rx="1.9" ry="1.9"/>
    <rect class="st5" x="320.9" y="330" width="39.4" height="4.2" rx="1.9" ry="1.9"/>
    <path class="st14" d="M331.3,382.5h29.4c.8,0,1.4-.5,1.7-1.2l1.9-4h-36.5l1.9,4c.3.7.9,1.2,1.7,1.2Z"/>
    <path class="st9" d="M331.3,382.5h29.4c.8,0,1.4-.5,1.7-1.2l1.9-4h-36.5l1.9,4c.3.7.9,1.2,1.7,1.2Z"/>
    <rect class="st14" x="326.3" y="374.9" width="39.4" height="4.2" rx="1.9" ry="1.9"/>
    <rect class="st5" x="326.3" y="374.9" width="39.4" height="4.2" rx="1.9" ry="1.9"/>
    <polygon class="st14" points="364.9 416 374.1 416 344 178.3 334.8 178.3 364.9 416"/>
    <polygon class="st4" points="364.9 416 374.1 416 344 178.3 334.8 178.3 364.9 416"/>
    <polygon class="st14" points="267.8 416 258.5 416 288.6 178.3 297.8 178.3 267.8 416"/>
    <polygon class="st9" points="267.8 416 258.5 416 288.6 178.3 297.8 178.3 267.8 416"/>
    <path class="st14" d="M322.8,213.5h-29.4c-.8,0-1.4-.5-1.7-1.2l-1.9-4h36.5l-1.9,4c-.3.7-.9,1.2-1.7,1.2Z"/>
    <path class="st8" d="M322.8,213.5h-29.4c-.8,0-1.4-.5-1.7-1.2l-1.9-4h36.5l-1.9,4c-.3.7-.9,1.2-1.7,1.2Z"/>
    <rect class="st14" x="288.4" y="206" width="39.4" height="4.2" rx="1.9" ry="1.9"/>
    <rect class="st7" x="288.4" y="206" width="39.4" height="4.2" rx="1.9" ry="1.9"/>
    <path class="st14" d="M317.4,247.5h-29.4c-.8,0-1.4-.5-1.7-1.2l-1.9-3.9h36.6l-1.9,3.9c-.3.7-.9,1.2-1.7,1.2Z"/>
    <path class="st8" d="M317.4,247.5h-29.4c-.8,0-1.4-.5-1.7-1.2l-1.9-3.9h36.6l-1.9,3.9c-.3.7-.9,1.2-1.7,1.2Z"/>
    <rect class="st14" x="283.1" y="240" width="39.4" height="4.2" rx="1.9" ry="1.9"/>
    <rect class="st7" x="283.1" y="240" width="39.4" height="4.2" rx="1.9" ry="1.9"/>
    <path class="st14" d="M312.1,292.5h-29.4c-.8,0-1.4-.5-1.7-1.2l-1.9-4h36.5l-1.9,4c-.3.7-.9,1.2-1.7,1.2Z"/>
    <path class="st8" d="M312.1,292.5h-29.4c-.8,0-1.4-.5-1.7-1.2l-1.9-4h36.5l-1.9,4c-.3.7-.9,1.2-1.7,1.2Z"/>
    <rect class="st14" x="277.7" y="285" width="39.4" height="4.2" rx="1.9" ry="1.9"/>
    <rect class="st7" x="277.7" y="285" width="39.4" height="4.2" rx="1.9" ry="1.9"/>
    <path class="st14" d="M306.7,337.5h-29.4c-.8,0-1.4-.5-1.7-1.2l-1.9-4h36.5l-1.9,4c-.3.7-.9,1.2-1.7,1.2Z"/>
    <path class="st8" d="M306.7,337.5h-29.4c-.8,0-1.4-.5-1.7-1.2l-1.9-4h36.5l-1.9,4c-.3.7-.9,1.2-1.7,1.2Z"/>
    <rect class="st14" x="272.3" y="330" width="39.4" height="4.2" rx="1.9" ry="1.9"/>
    <rect class="st7" x="272.3" y="330" width="39.4" height="4.2" rx="1.9" ry="1.9"/>
    <path class="st14" d="M301.4,382.5h-29.4c-.7,0-1.4-.5-1.7-1.2l-1.9-4h36.5l-1.9,4c-.3.7-.9,1.2-1.7,1.2Z"/>
    <path class="st8" d="M301.4,382.5h-29.4c-.7,0-1.4-.5-1.7-1.2l-1.9-4h36.5l-1.9,4c-.3.7-.9,1.2-1.7,1.2Z"/>
    <rect class="st14" x="267" y="374.9" width="39.4" height="4.2" rx="1.9" ry="1.9"/>
    <rect class="st7" x="267" y="374.9" width="39.4" height="4.2" rx="1.9" ry="1.9"/>
    <polygon class="st14" points="303.5 416 294.2 416 324.3 178.3 333.5 178.3 303.5 416"/>
    <polygon class="st4" points="303.5 416 294.2 416 324.3 178.3 333.5 178.3 303.5 416"/>
    <path class="st14" d="M345.5,179.5h-58.6c-.7,0-1.4-.5-1.7-1.2l-1.9-4h65.7l-1.9,4c-.3.7-1,1.1-1.7,1.2Z"/>
    <path class="st8" d="M345.5,179.5h-58.6c-.7,0-1.4-.5-1.7-1.2l-1.9-4h65.7l-1.9,4c-.3.7-1,1.1-1.7,1.2Z"/>
    <rect class="st14" x="281.9" y="172" width="68.6" height="4.2" rx="1.9" ry="1.9"/>
    <rect class="st7" x="281.9" y="172" width="68.6" height="4.2" rx="1.9" ry="1.9"/>
    <path class="st18" d="M349.6,178.5l-7.7-5.4-3.6,7.4s4.8,4.5,9.8,2.2l1.5-4.1Z"/>
    <polygon class="st18" points="335.3 172.3 333.9 178.4 338.3 180.5 341.9 173.1 335.3 172.3"/>
    <path class="st12" d="M402.2,161.4c-1.5,2.3-3,4.6-4.7,6.7-1.2,1.6-2.5,3.2-3.8,4.8h0c-.4.5-.8.9-1.2,1.4-.8.9-1.6,1.8-2.4,2.7-1,1.1-2.1,2.2-3.3,3.3l-.7.6h0c-.9.8-1.8,1.6-2.8,2.3-1.4,1.1-3,1.9-4.6,2.6-.5.2-1,.3-1.5.5-.5.1-.9.2-1.4.3-.8.1-1.6.2-2.4.2-1.5,0-2.9,0-4.3,0-2.8-.1-5.4-.5-8-.9-3.4-.5-6.7-1.2-9.9-2-1.2-.3-2.4-.6-3.6-.9l-1.9-.5c-1.3-.4-2.1-1.6-2-2.9,0-.2,0-.4.1-.6.3-1.1,1.2-1.8,2.3-2,.2,0,.3,0,.5,0h.8c1.5,0,3,.1,4.5.1,3.4.1,6.7.2,10,.3,2.5,0,5,0,7.4,0,1.2,0,2.4-.1,3.4-.3.8,0,1.6-.2,2.3-.6.7-.4,1.3-.9,1.9-1.4.6-.5,1.2-1.1,1.9-1.7.2-.2.4-.4.5-.5.4-.4.7-.7,1-1.1.9-.9,1.7-1.9,2.5-2.9.4-.5.8-.9,1.1-1.4,1.8-2.3,3.6-4.7,5.3-7.1,1.2-1.6,2.3-3.3,3.5-4.9h0c.6-.9,1.3-1.6,2.2-2l4.2.2h1.1c.1.1.2.2.3.3,2.5,1.7,3.2,5.1,1.5,7.7Z"/>
    <path class="st1" d="M399.6,168.1c-1.9,2.7-4,5.3-6.3,7.7h0c-.6.6-1.3,1.3-2,2l-1.1-.6-9.8-5.5-.9-.5s.6-1,1.6-2.4c1.2-1.8,2.9-4.4,4.5-6.8,1.2-1.9,2.4-3.7,3.1-5,.8-1.4,1.9-2.7,3.2-3.7h3.2c0,.1,4.2.3,4.2.3h1.1c0,0,2.8.2,2.8.2,1.3,3,1,7.7-3.5,14.4Z"/>
    <path class="st4" d="M399.6,168.1c-1.9,2.7-4,5.3-6.3,7.7h0c-.6.6-1.3,1.3-2,2l-1.1-.6-9.8-5.5-.9-.5s.6-1,1.6-2.4c1.2-1.8,2.9-4.4,4.5-6.8,1.2-1.9,2.4-3.7,3.1-5,.8-1.4,1.9-2.7,3.2-3.7h3.2c0,.1,4.2.3,4.2.3h1.1c0,0,2.8.2,2.8.2,1.3,3,1,7.7-3.5,14.4Z"/>
  </g>
  <g id="freepik--character-part-1--inject-18">
    <path class="st14" d="M253.3,415.8c0,0,0,.1,0,.2,0,0,0,0,0,0,0,0,0,.1,0,.1,0,0,0,.1-.1.2,0,0,0,.1-.1.2-.5.5-1,.8-1.6,1.1l-.5.2c-.5.2-1,.4-1.6.6-.4.1-.8.2-1.2.4-7,1.9-20.4,3.4-37.4,4.2h-2c0,.1-3.3.2-3.3.2h-3.4c0,.1-2.3.2-2.3.2-1.9,0-3.7.1-5.6.1h-3.2c-1.8,0-3.5,0-5.3,0h-4.8c-5.8,0-11.5,0-17-.2h-2.4c-.7,0-1.4,0-2.1-.1h-3.2c0-.1-4.2-.3-4.2-.3h-1.1c0,0-2.8-.2-2.8-.2-4.6-.3-8.9-.6-12.9-.9-9.5-.8-17-1.9-21.7-3.2h-.4c0-.1-.4-.2-.4-.2-.8-.2-1.4-.5-2-.7-.2,0-.4-.2-.6-.3-.3-.1-.6-.3-.9-.5,0,0-.2-.1-.3-.2l-.2-.2-.2-.2c0,0-.1-.1-.2-.2,0-.1-.1-.2-.2-.4h0c0-.2,0-.2,0-.2,0-3.3,17.8-6.1,43.4-7.3h2.1c0-.1,2.8-.2,2.8-.2h4.2c0-.1,2.3-.2,2.3-.2h5.4c0-.1.3-.1.3-.1h2.6c1.6,0,3.2,0,4.8,0h4.9c5.9,0,11.7,0,17.2.2h4c0,.1,1.7.2,1.7.2h2c0,0,1.2.1,1.2.1h3.2c0,.1,3,.3,3,.3,5.7.3,11,.7,15.8,1.2,15,1.5,24.6,3.6,24.6,6Z"/>
    <path class="st9" d="M108.1,415.8c0-3.3,17.8-6.1,43.4-7.3h2.1c0-.1,2.8-.2,2.8-.2,3.8-.1,7.8-.3,11.9-.4h2.9c3.1,0,6.4,0,9.6,0,5.9,0,11.7,0,17.2.2h4c10.1.5,19.2,1,26.9,1.8,15.1,1.5,24.6,3.6,24.6,6s-1.9,2.1-5.3,3c-6.3-1.5-12.8-2.5-19.3-3-7.7-.7-16.8-1.3-26.9-1.6h-4c-5.5-.3-11.3-.4-17.2-.4s-6.5,0-9.6,0h-2.9c-4.1,0-8.1.2-11.9.4h-2.8c0,.1-2.1.2-2.1.2-17.2.8-30.9,2.4-38,4.3-3.4-.9-5.3-1.9-5.3-3Z"/>
    <path class="st12" d="M174.6,412.1c-.6.7-1.1,1.2-1.6,1.8-.3.3-.5.5-.8.8-.5.5-.9,1-1.4,1.4-.3.3-.6.6-1,.9-1.7,1.6-3.5,3-5.4,4.4l-.3.2c-.3.2-.6.4-.9.6h0c-.6.4-1.3.8-2,1.2-.7,0-1.4,0-2.1,0h-3.2c0-.1-4.2-.3-4.2-.3h-1.1c0,0-2.8-.2-2.8-.2-4.6-.3-8.9-.6-12.9-.9l1.6-.5c4-1.3,8-2.5,11.9-3.8,1-.3,1.9-.6,2.8-1,.8-.3,1.5-.6,2.2-1,.4-.3.9-.5,1.4-.9.2-.2.5-.3.7-.5h0c.7-.5,1.4-1.1,2.1-1.7,1.4-1.2,2.9-2.5,4.2-3.8l.8-.7c.4-.4.9-.9,1.3-1.3l2-2h.1c1.2-1.4,3-2,4.7-1.8,2.6.3,4.6,2.4,4.9,5h0c.2,1.5-.3,3-1.2,4.2Z"/>
    <path class="st1" d="M172.4,400.7c-5.6-.1-18,13.7-18,13.7l10.2,9.1s9.1-4,11.4-10.5-3.6-12.3-3.6-12.3Z"/>
    <path class="st4" d="M176,412.9c-1.1,2.7-2.8,5-5.1,6.7-1.9,1.5-4,2.8-6.3,3.9l-2.8-2.4-7.5-6.6s12.4-13.9,18-13.7c0,0,5.9,5.7,3.7,12.3Z"/>
    <path class="st2" d="M170.9,419.6c-1.9,1.5-4,2.8-6.3,3.9l-2.8-2.4c1.5-4.3,4.1-8.1,7.6-11,1.2,2.3,1.6,7.1,1.5,9.5Z"/>
    <path class="st1" d="M210.9,406.5h0c0,.1-.1.2-.2.4-.2.4-.3.7-.5,1.1,0,.2-.2.4-.2.6,0,0,0,0,0,.1,0,.1-.1.3-.2.5-.2.4-.3.8-.5,1.2s-.4,1-.6,1.6h0c-.1.5-.3.8-.4,1.2s-.3.8-.4,1.2c0,0,0,0,0,.1-.1.4-.2.7-.4,1.1-.2.8-.5,1.5-.7,2.3v.2c-.5,1.7-1,3.4-1.4,5.2,0,0,0,0,0,.1h-3.4c0,.1-2.3.2-2.3.2-1.9,0-3.7.1-5.6.1h-3.2c-1.8,0-3.5,0-5.3,0h-4.8c-5.8,0-11.5,0-17-.2h0v-.7h.1c0-.2,0-.3.1-.5s0-.3.1-.5c0,0,0-.1,0-.2.4-2,.9-3.8,1.4-5.5.2-.6.3-1.1.5-1.7,0-.2.1-.3.2-.5h0c.1-.4.3-.8.4-1.2h0l.2-.6h0c.1-.3.2-.6.3-.9s.2-.7.4-1l.3-.8h0l.6-1.5c.5-1.1.9-2.1,1.3-2.9,0-.1.1-.3.2-.4l.4-.8.5-.9s0,0,0-.1c.2-.3.3-.6.5-.8l.4-.6.5-.7h0c3-.3,6-.4,8.9-.3.6,0,1.3,0,1.9,0s1.2.1,1.9.2c1.4.2,3,.4,4.7.6l3.1.5c1.1.2,2.1.4,3.1.6h.5c.8.3,1.6.4,2.3.6.5.1,1,.2,1.5.3.2,0,.5.1.7.2l.7.2c.9.2,1.8.5,2.7.7l.8.2,1.6.5,1.4.4c1.6.5,2.6.9,2.7.9h0Z"/>
    <path class="st4" d="M210.9,406.5h0c0,.1-.1.2-.2.4-.2.4-.3.7-.5,1.1,0,.2-.2.4-.2.6h0s0,0,0,.1c0,.1-.1.3-.2.5-.2.4-.3.8-.5,1.2s-.4,1-.6,1.6h0c-.1.5-.3.8-.4,1.2s-.3.8-.4,1.2h0c-.1.4-.2.8-.4,1.1-.2.8-.5,1.5-.7,2.3v.2c-.5,1.7-1,3.4-1.4,5.2,0,0,0,0,0,.1h-3.4c0,.1-2.3.2-2.3.2-1.9,0-3.7.1-5.6.1h-3.2c-1.8,0-3.5,0-5.3,0h-4.8c-5.8,0-11.5,0-17-.2v-.7h.1c0-.3.1-.6.2-.9,0,0,0-.1,0-.2.4-2,.9-3.8,1.4-5.5.2-.6.3-1.1.5-1.7,0-.2.1-.3.2-.5h0c.1-.4.3-.8.4-1.2h0l.2-.6h0c.1-.3.2-.6.3-.9s.2-.7.4-1l.3-.8h0l.6-1.5h0c.5-1.1.9-2.1,1.3-2.9,0-.1.1-.3.2-.4l.4-.8.5-.9s0,0,0-.1l.5-.8.4-.6.5-.7h0c3-.3,6-.4,8.9-.3.6,0,1.3,0,1.9,0s1.2.1,1.9.2c1.4.2,3,.4,4.7.6l3.1.5c1.1.2,2.1.4,3.1.6h.5c.8.3,1.6.4,2.3.6.5.1,1,.2,1.5.3.2,0,.5.1.7.2l.7.2c.9.2,1.8.5,2.7.7l.8.2,1.6.5,1.4.4c1.6.5,2.6.9,2.7.9h0Z"/>
    <path class="st18" d="M192.8,388.5s.3,10.6,1.3,12.2,4.7,2.3,4.7,2.3c0,0-8.8,4.4-12.9,3.5s-6.1-6.2-6.1-6.2c0,0,2.9.1,3.6-.3s-.6-7.4-.6-7.4l9.9-4.2Z"/>
    <path class="st3" d="M183.7,395.3l-.4.5c-.2-1.6-.5-3.2-.5-3.2l9.9-4.2s.3,8.6,1,11.5c-4,.4-8.7-2.6-10.1-4.6Z"/>
    <path class="st14" d="M189.4,370.6c2.7,1.4,6.6,6,2.4,7.5s-7-10-2.4-7.5Z"/>
    <path class="st18" d="M177.3,388.3c2.1,2.5,4.4,4.9,6.8,7.1,1.8,1.5,3.9,2.4,6.2,2.7,8,1,13.2-7.5,9.9-14.5-.4-.8-.8-1.6-1.2-2.4-3.5-5.8-10.3-11.9-16.9-9.9-5.5,1.6-8.6,7.4-7,12.9.4,1.5,1.2,2.9,2.3,4Z"/>
    <path class="st14" d="M180.6,387.8l.4,1.2c.7,2.3,1.8,4.5,3.2,6.5,1.8,1.5,3.9,2.4,6.2,2.7,8,1,13.2-7.5,9.9-14.5-.4-.8-.8-1.6-1.2-2.4,0,0,.6,2.8,0,4.1,0,0-3-.8-4.5.5,0,0-3.2-.9-5.9,2.5-2.5,1.7-5.9,1.4-8.2-.5Z"/>
    <path class="st8" d="M180.6,387.8l.4,1.2c.7,2.3,1.8,4.5,3.2,6.5,1.8,1.5,3.9,2.4,6.2,2.7,8,1,13.2-7.5,9.9-14.5-.4-.8-.8-1.6-1.2-2.4,0,0,.6,2.8,0,4.1,0,0-3-.8-4.5.5,0,0-3.2-.9-5.9,2.5-2.5,1.7-5.9,1.4-8.2-.5Z"/>
    <path class="st14" d="M169,384.5c-3.6-3-.2-7.5,3.6-9,.4-.2.8-.4,1-.8l4.5,6.9c-.4.2-.8.4-1.2.5,0,0,5.3,4.7,4.8,9.3-7.4,2.1-14.5-1.7-12.7-6.9Z"/>
    <path class="st18" d="M178.9,395c1.6,1.1,3.5,1.4,5.3,1.1.2,0,.4,0,.5-.1h0c1.5-1.4-3-6.5-3.2-6.7h0c-1-.3-2-.2-2.9.4-1.4,1.1-1.7,3.1-.7,4.5.3.3.6.6.9.9Z"/>
    <path class="st14" d="M187.6,382.8c.4.5.9.7,1.2.4s.3-.9-.1-1.3-.9-.7-1.2-.4-.3.9.1,1.3Z"/>
    <path class="st14" d="M193,378.5c.4.5.9.7,1.2.4s.3-.8-.1-1.3-.9-.7-1.2-.4-.3.8.1,1.3Z"/>
    <path class="st21" d="M191.4,380.1c1.7,1,3.5,1.7,5.4,2.1-.2,1.4-2,2.2-2,2.2l-3.4-4.3Z"/>
    <path class="st14" d="M185.4,379.1c-.1,0-.2.2-.2.3,0,.9-.4,1.8-1.1,2.4-.2.1-.2.3-.1.5.1.2.3.2.5.1,0,0,0,0,0,0,.9-.7,1.5-1.8,1.5-3,0-.2-.2-.4-.4-.4,0,0-.1,0-.2,0Z"/>
    <path class="st14" d="M193.9,374.6c0,0,0-.1.1-.2,0-.2,0-.4-.2-.5-1.1-.4-2.3-.3-3.2.4-.1.1-.1.4,0,.5.1.1.3.1.4,0,.8-.5,1.7-.6,2.6-.3.1,0,.2,0,.3,0Z"/>
    <path class="st14" d="M194.8,391c.2,0,.4-.2.6-.3l.5-3.9h-.6c-1.2,0-4,.3-4.7,1.7,0,.2-.1.3-.2.5-.2.6-.1,1.3.1,1.9.4.8,1.6,1.3,4.3,0Z"/>
    <path class="st15" d="M190.4,389l4.8-1.7v-.5c-1.1,0-3.9.3-4.6,1.7,0,.2-.1.3-.2.5Z"/>
    <path class="st20" d="M194.8,391c-.8-1.4-3.1-.7-4.4,0,.5.8,1.7,1.3,4.4,0Z"/>
    <path class="st14" d="M169,384.5c-1.5-1.1-3.6-4.2-.7-7.4s6.3-4.8,4.7-7.1,1.2-4.3,3.3-2.8c0,0,4.8-7.8,8.1-1.8,0,0,3.3-2.3,5.3.2s2.4,5.1-.2,6-2.9,1.2-2.5,2.8-1.9,2.8-1.9,2.8c0,0,1.4-.9.6-2-.3,1.4-1.4,2.5-2.8,2.8-2.6.8-1.4,3.3-1.4,3.3,0,0-1.4.5-1.7-1.4,0,0-1.1,4.4-4,5.5s-4.7.8-6.9-.9Z"/>
    <path class="st2" d="M206.8,418c-.5,1.7-.9,3.4-1.4,5.2,0,0,0,0,0,.1h-3.4c0,.1-2.3.2-2.3.2-1.9,0-3.7.1-5.6.1h-3.2c1.2-2.3,2.9-4.3,5-5.8.4-.3.8-.5,1.2-.8.8-.5,1.7-.8,2.7-.9,2.5-.3,5,.4,7.1,1.9Z"/>
    <path class="st12" d="M213.5,414.7c0,1-.4,1.9-.9,2.8-1.3,2-2.6,3.9-3.9,5.7h-3.3c0,.1-3.4.3-3.4.3h-2.3c-1.9.1-3.7.2-5.6.2.1-.1.2-.2.3-.4,1.8-2.3,3.6-4.7,5.3-7.1.5-.7,1-1.4,1.4-2,.7-1,1.4-1.9,2-2.9h0c1.5-2.2,4.2-3.1,6.6-2.2.5.2.9.4,1.3.7,1.6,1.1,2.5,3,2.4,4.9Z"/>
    <path class="st1" d="M214.1,414.8c-.5,3-1.7,5.8-3.4,8.3h-2c0,.1-3.3.2-3.3.2h-3.4c0,.1-2.3.2-2.3.2-1.9,0-3.7.1-5.6.1h-2c1.1-1.7,2.5-3.8,3.8-5.8.9-1.4,1.7-2.7,2.4-3.8l.7-1.2c1.1-1.9,2.7-3.5,4.6-4.6h0c2.2-1.3,4.7-1.9,7.3-1.7.9.6,1.6,1.3,2.1,2.2,1.1,1.8,1.5,4,1.1,6.1Z"/>
    <path class="st4" d="M214.1,414.8c-.5,3-1.7,5.8-3.4,8.3h-2c0,.1-3.3.2-3.3.2h-3.4c0,.1-2.3.2-2.3.2-1.9,0-3.7.1-5.6.1h-2c1.1-1.7,2.5-3.8,3.8-5.8.9-1.4,1.7-2.7,2.4-3.8l.7-1.2c1.1-1.9,2.7-3.5,4.6-4.6h0c2.2-1.3,4.7-1.9,7.3-1.7.9.6,1.6,1.3,2.1,2.2,1.1,1.8,1.5,4,1.1,6.1Z"/>
  </g>
</svg>